<?xml version="1.0" standalone="no"?>
<!DOCTYPE svg PUBLIC "-//W3C//DTD SVG 1.1//EN" "http://www.w3.org/Graphics/SVG/1.1/DTD/svg11.dtd" >
<svg xmlns="http://www.w3.org/2000/svg" xmlns:xlink="http://www.w3.org/1999/xlink" version="1.1" viewBox="0 0 256 256">
  <g transform="matrix(1 0 0 -1 0 204)">
   <path fill="currentColor"
d="M114 202q2 -1 6 -2q4 -2 8 -2q3 0 10 -10q2 -1 4 -3q39 3 55 -5q7 -3 15 -15q0 -4 -5 -4q-6 3 -12 2q-1 -1 -3 -1q-17 -5 -28 -4q-8 -1 -1 2q20 3 36 9q3 1 3 3t-4 5q-19 10 -55 4q4 -8 0 -7q-6 -2 -8 1q-2 2 -6 4q-29 -7 -35 -10q-5 0 -1 2l30 10q-2 -1 3 1q-5 2 -5 3
q-1 1 2 1q4 1 1 5l-10 8q-2 1 -2 3q0 1 2 0zM84 169q2 0 2 -1t-2 -2q-5 -3 -4 -9q-1 -6 6 -11q-2 -6 -7 -5q-8 9 -7 16q-1 4 3 7q6 5 9 5zM153 136q2 5 9 3q2 -1 4 -1q3 -1 5 -1q2 -1 1 -3t-3 -2q-18 -3 -26 -7q-9 -3 -33 -9q-7 -2 -14 0q-3 0 -3 1t3 2q26 4 49 12q7 2 8 5z
M130 104q-2 2 -2 3q1 1 4 1q9 -4 7 -6q-1 -2 -1 -6q1 -4 1 -5q10 2 27 4q3 0 6 1q4 1 7 4q3 4 11 1q1 -1 15 -6q2 -5 -5 -4q-8 4 -19 3q-9 0 -41 -6q1 -37 0 -55q-1 -20 -6 -37q-2 -8 -5 -10q-1 0 -3 -1q-2 -2 -2 -4q-1 -2 -6 -2q-24 -1 -34 5q-5 2 1 1q38 -6 43 9
q12 23 6 93q-10 -3 -30 -7q-21 -5 -29 -7q-13 -4 -17 -2q-3 0 0 2q3 0 11 2q43 10 64 15q0 8 -3 14z" />
  </g>

</svg>
