<?xml version="1.0" standalone="no"?>
<!DOCTYPE svg PUBLIC "-//W3C//DTD SVG 1.1//EN" "http://www.w3.org/Graphics/SVG/1.1/DTD/svg11.dtd" >
<svg xmlns="http://www.w3.org/2000/svg" xmlns:xlink="http://www.w3.org/1999/xlink" version="1.1" viewBox="0 0 256 256">
  <g transform="matrix(1 0 0 -1 0 204)">
   <path fill="currentColor"
d="M147 74q6 2 10 1q5 -3 11 -8q4 -4 8 -4q3 -2 3 -6q1 -3 -5 -7q-1 -13 -1 -22q-1 -17 -1 -22q-1 -4 -1 -3q-3 -17 -4 -21q-2 -4 -3 -4q-2 -1 -7 5q-3 3 -8 7l-2 1q-9 5 -14 9q-3 1 2 1q2 -1 7 -1q8 -3 13 -5q10 -3 11 5q6 33 -3 65q-3 7 -12 5q-7 -2 -16 -5q-5 -3 -9 -4
h-1q-4 -1 -8 -3q-2 -1 -4 -1t-1 1q3 7 35 16zM109 56q2 -7 3 -17q0 -2 1 -4v-3q1 -10 9 -18q0 -1 2 0q3 1 5 1q7 3 17 3h2q2 0 2 -2q1 -3 -1 -2q-6 -3 -15 -4h-10q-6 -4 -13 1q-2 0 -2 1q1 1 3 2q-4 4 -5 6q-3 1 -2 5q-2 4 2 7v5v19q0 3 2 0zM148 45q0 -3 -1 -4q-6 -4 -8 -5
q-6 -1 -10 -5l-3 -1q0 1 1 4q-4 -2 -7 -1q-3 0 -1 2q6 1 11 5q3 3 13 5q-1 0 2 1q3 0 3 -1zM94 195q1 -2 0 -1q6 -7 5 -8q-6 -21 -17 -26q3 0 8 2q29 8 39 14q5 3 13 0q1 -1 1 -2t-1 -1q-20 -5 -47 -12q-8 -3 -15 -2l-3 -1q-4 -2 0 1q10 9 16 24q1 4 0 10q-1 4 1 2zM92 140
q-3 4 1 2q3 -2 5 -3q9 -4 8 -5q0 -1 -1 -1q-1 -1 0 -1q18 2 20 7q0 4 9 2q2 -1 4 -1q3 -1 5 -1q1 -1 1 -3q-1 -1 -2 -1q-11 0 -35 -7h-2q-2 -3 -1 -7q-4 -49 -42 -65q-8 -4 -2 1q41 20 38 70q-5 -2 -9 -3q-22 -6 -32 -11q-10 -4 -24 0q-6 1 0 2q16 1 64 15q-1 5 -5 10z
M201 144q2 1 14 -11q2 -3 1 -4t-3 0q-4 0 -8 -4q-2 -2 -4 -5q-2 -2 -12 -11q2 -1 6 -1q3 -1 6 -1q5 -4 1 -6q-6 -1 -14 1q-7 1 -22 -3h-3q-3 -1 -3 0q-1 1 1 4q-10 12 -13 24q1 3 4 0q0 -3 2 -6q1 -1 2 -1q0 -2 2 -3q1 -2 8 -12q11 1 19 4q12 12 17 25q1 3 0 4q-2 2 -5 2
q-13 -2 -23 -5q-4 -2 -8 -3t-10 0q-3 0 0 2q30 8 45 10zM114 112q18 -15 27 -25q1 -4 -2 -5t-10 3q-1 1 -1 2h-1q-3 0 -2 5q-1 4 -12 19q-2 3 1 1z" />
  </g>

</svg>
