
<svg version="1.1" baseProfile="full" xmlns="http://www.w3.org/2000/svg" width="512" height="512" viewBox="0,0,512,512">

  <rect width="512" height="512" stroke="red" fill="white"></rect>

  <text x="2" y="12" font-size="12" text-anchor="start" fill="red">0</text>
  <path d="M256  64 H0 H512" stroke="lightgray" fill="white"></path>
  <text x="2" y="64" font-size="12" text-anchor="start" fill="red">64</text>
  <path d="M256 128 H0 H512" stroke="lightgray" fill="white"></path>
  <text x="2" y="128" font-size="12" text-anchor="start" fill="red">128</text>
  <path d="M256 192 H0 H512" stroke="lightgray" fill="white"></path>
  <text x="2" y="192" font-size="12" text-anchor="start" fill="red">192</text>
  <path d="M256 256 H0 H512" stroke="lightgray" fill="white"></path>
  <text x="2" y="256" font-size="12" text-anchor="start" fill="red">256</text>
  <path d="M256 320 H0 H512" stroke="lightgray" fill="white"></path>
  <text x="2" y="320" font-size="12" text-anchor="start" fill="red">320</text>
  <path d="M256 384 H0 H512" stroke="lightgray" fill="white"></path>
  <text x="2" y="384" font-size="12" text-anchor="start" fill="red">384</text>
  <path d="M256 448 H0 H512" stroke="lightgray" fill="white"></path>
  <text x="2" y="448" font-size="12" text-anchor="start" fill="red">448</text>
  <text x="2" y="512" font-size="12" text-anchor="start" fill="red">512</text>

  <path d="M64  0 V512" stroke="lightgray" fill="white"></path>
  <text x="64" y="12" font-size="12" text-anchor="start" fill="red">64</text>
  <path d="M128  0 V512" stroke="lightgray" fill="white"></path>
  <text x="128" y="12" font-size="12" text-anchor="start" fill="red">128</text>
  <path d="M195  0 V512" stroke="lightgray" fill="white"></path>
  <text x="192" y="12" font-size="12" text-anchor="start" fill="red">192</text>
  <path d="M256  0 V512" stroke="lightgray" fill="white"></path>
  <text x="256" y="12" font-size="12" text-anchor="start" fill="red">256</text>
  <path d="M320  0 V512" stroke="lightgray" fill="white"></path>
  <text x="320" y="12" font-size="12" text-anchor="start" fill="red">320</text>
  <path d="M384  0 V512" stroke="lightgray" fill="white"></path>
  <text x="384" y="12" font-size="12" text-anchor="start" fill="red">384</text>
  <path d="M448  0 V512" stroke="lightgray" fill="white"></path>
  <text x="448" y="12" font-size="12" text-anchor="start" fill="red">448</text>
  <text x="512" y="12" font-size="12" text-anchor="start" fill="red">512</text>

  <path d="M128 320 C194 344,256 344,320 320" stroke="black" stroke-width='5' fill="none"/>
  <path d="M128 320 C100 290,100 260,128 220" stroke="black" stroke-width='5' fill="none"/>
  <path d="M320 320 C348 290,348 260,320 220" stroke="black" stroke-width='5' fill="none"/>
  <path d="M192 192 C212 182,236 182,256 192" stroke="black" stroke-width='5' fill="none"/>
  <ellipse fill="yellow" stroke="black" stroke-width="2" cx="224" cy="300" rx="9" ry="5"/>
  <ellipse fill="" stroke="black" stroke-width="2" cx="160" cy="268" rx="6" ry="9"/>
  <ellipse fill="" stroke="black" stroke-width="2" cx="288" cy="268" rx="6" ry="9"/>
  <path d="M128 220 C118 210,118 182,128 172" stroke="black" stroke-width='5' fill="none"/>
  <path d="M320 220 C330 210,330 182,320 172" stroke="black" stroke-width='5' fill="none"/>
  <path d="M128 172 C148 180,172 182,192 192" stroke="black" stroke-width='5' fill="none"/>
  <path d="M320 172 C192 180,276 222,256 192" stroke="black" stroke-width='5' fill="none"/>
  <circle fill="red" stroke="#890000" stroke-width="5" cx="245" cy="185" r="10"/>
  <circle fill="red" stroke="#890000" stroke-width="5" cx="275" cy="195" r="10"/>
  <circle fill="red" stroke="#890000" stroke-width="5" cx="260" cy="190" r="15"/>
  <path d="M128 256 C108 250,104 250,84 256" stroke="black" stroke-width='5' fill="none"/>
  <path d="M128 276 C108 270,104 270,84 276" stroke="black" stroke-width='5' fill="none"/>
  <path d="M128 296 C108 290,104 290,84 296" stroke="black" stroke-width='5' fill="none"/>
  <path d="M320 256 C348 262,344 250,364 256" stroke="black" stroke-width='5' fill="none"/>
  <path d="M320 276 C348 282,344 270,364 276" stroke="black" stroke-width='5' fill="none"/>
  <path d="M320 296 C348 302,344 290,364 296" stroke="black" stroke-width='5' fill="none"/>
</svg>
